<?xml version="1.0" encoding="UTF-8"?>
<svg xmlns="http://www.w3.org/2000/svg" xmlns:xlink="http://www.w3.org/1999/xlink" viewBox="0 0 2111.17 1766.09">
  <defs>
    <style>
      .cls-1 {
        mask: url(#mask);
      }

      .cls-2 {
        filter: url(#luminosity-noclip);
      }

      .cls-3 {
        fill: #a77860;
      }

      .cls-4 {
        fill: #464240;
      }

      .cls-5 {
        filter: url(#luminosity-noclip-3);
      }

      .cls-6 {
        fill: url(#linear-gradient-8);
      }

      .cls-7 {
        fill: url(#linear-gradient-7);
      }

      .cls-8 {
        fill: url(#linear-gradient-5);
      }

      .cls-9 {
        fill: url(#linear-gradient-6);
      }

      .cls-10 {
        fill: url(#linear-gradient-9);
      }

      .cls-11 {
        fill: url(#linear-gradient-4);
      }

      .cls-12 {
        fill: url(#linear-gradient-3);
      }

      .cls-13 {
        fill: url(#linear-gradient-2);
      }

      .cls-14 {
        fill: #807066;
      }

      .cls-15 {
        fill: #918880;
      }

      .cls-16 {
        fill: #d9d9d9;
      }

      .cls-17 {
        fill: #6f5be0;
      }

      .cls-18 {
        fill: #eb4747;
      }

      .cls-19 {
        fill: #ff6f59;
      }

      .cls-20 {
        fill: #bc8551;
      }

      .cls-21 {
        fill: #4e409e;
      }

      .cls-22 {
        fill: #2273b5;
      }

      .cls-23 {
        fill: #de9673;
      }

      .cls-24 {
        fill: #ff4f58;
      }

      .cls-25 {
        isolation: isolate;
      }

      .cls-26 {
        mask: url(#mask-2);
      }

      .cls-27 {
        mask: url(#mask-3);
      }

      .cls-28 {
        mask: url(#mask-1);
      }

      .cls-29 {
        fill: url(#linear-gradient-12);
      }

      .cls-29, .cls-30 {
        mix-blend-mode: multiply;
      }

      .cls-30 {
        fill: url(#linear-gradient-14);
      }

      .cls-31 {
        fill: #e0d1ca;
      }

      .cls-32 {
        fill: #6e6760;
      }

      .cls-33, .cls-34, .cls-35, .cls-36, .cls-37, .cls-38, .cls-39, .cls-40 {
        mix-blend-mode: hard-light;
      }

      .cls-41 {
        fill: #323657;
      }

      .cls-42 {
        fill: #fff;
      }

      .cls-43 {
        fill: #1a598c;
      }

      .cls-44 {
        fill: #b487fe;
      }

      .cls-45 {
        fill: #2f4563;
      }

      .cls-46 {
        fill: url(#linear-gradient-10);
      }

      .cls-46, .cls-47 {
        opacity: .18;
      }

      .cls-47 {
        fill: url(#linear-gradient-11);
      }

      .cls-48 {
        fill: url(#linear-gradient-13);
      }

      .cls-49 {
        fill: url(#linear-gradient-19);
      }

      .cls-50 {
        fill: url(#linear-gradient-20);
      }

      .cls-51 {
        fill: url(#linear-gradient-23);
      }

      .cls-52 {
        fill: url(#linear-gradient-15);
      }

      .cls-53 {
        fill: url(#linear-gradient-17);
      }

      .cls-54 {
        fill: url(#linear-gradient-18);
      }

      .cls-55 {
        fill: url(#linear-gradient-24);
      }

      .cls-56 {
        fill: #3788cc;
      }

      .cls-34 {
        fill: url(#linear-gradient-22);
      }

      .cls-35 {
        fill: url(#linear-gradient-21);
      }

      .cls-36 {
        fill: url(#linear-gradient-16);
      }

      .cls-37 {
        fill: url(#linear-gradient-25);
      }

      .cls-38 {
        fill: url(#linear-gradient-26);
      }

      .cls-39 {
        fill: url(#linear-gradient-27);
      }

      .cls-57 {
        fill: #918783;
      }

      .cls-40 {
        fill: url(#linear-gradient);
      }

      .cls-58 {
        fill: #ffad5b;
      }

      .cls-59 {
        fill: #cf932d;
      }

      .cls-60 {
        fill: #bfb2ac;
      }

      .cls-61 {
        fill: #d6985e;
      }

      .cls-62 {
        fill: #f3ad35;
      }

      .cls-63 {
        fill: #eea886;
      }

      .cls-64 {
        fill: #eea987;
      }

      .cls-65 {
        fill: #e8e8e8;
      }
    </style>
    <linearGradient id="linear-gradient" x1="792" y1="799.14" x2="792" y2="-2861.46" gradientUnits="userSpaceOnUse">
      <stop offset="0" stop-color="#44607d"/>
      <stop offset="1" stop-color="#f5f5f5"/>
    </linearGradient>
    <linearGradient id="linear-gradient-2" x1="622.02" y1="780.31" x2="824.61" y2="780.31" gradientUnits="userSpaceOnUse">
      <stop offset="0" stop-color="#d5e4ff"/>
      <stop offset="1" stop-color="#edfffe"/>
    </linearGradient>
    <linearGradient id="linear-gradient-3" x1="149.92" y1="355.89" x2="697.82" y2="355.89" gradientUnits="userSpaceOnUse">
      <stop offset="0" stop-color="#ffc05c"/>
      <stop offset="1" stop-color="#ff3857"/>
    </linearGradient>
    <linearGradient id="linear-gradient-4" x1="1396.08" y1="960.5" x2="1167.49" y2="960.5" xlink:href="#linear-gradient-3"/>
    <linearGradient id="linear-gradient-5" x1="1396.08" y1="1001.73" x2="1167.49" y2="1001.73" xlink:href="#linear-gradient-3"/>
    <linearGradient id="linear-gradient-6" x1="1396.08" y1="836.81" x2="1167.49" y2="836.81" xlink:href="#linear-gradient-3"/>
    <linearGradient id="linear-gradient-7" x1="1348.3" y1="795.58" x2="1181.3" y2="795.58" xlink:href="#linear-gradient-3"/>
    <linearGradient id="linear-gradient-8" x1="1367.26" y1="919.27" x2="1175.82" y2="919.27" xlink:href="#linear-gradient-3"/>
    <linearGradient id="linear-gradient-9" x1="1396.08" y1="878.04" x2="1167.49" y2="878.04" xlink:href="#linear-gradient-3"/>
    <linearGradient id="linear-gradient-10" x1="1218.73" y1="732.48" x2="1400.4" y2="732.48" xlink:href="#linear-gradient-2"/>
    <linearGradient id="linear-gradient-11" x1="1218.73" y1="678.63" x2="1438.75" y2="678.63" xlink:href="#linear-gradient-2"/>
    <filter id="luminosity-noclip" x="468.16" y="1111.65" width="910.69" height="25.43" color-interpolation-filters="sRGB" filterUnits="userSpaceOnUse">
      <feFlood flood-color="#fff" result="bg"/>
      <feBlend in="SourceGraphic" in2="bg"/>
    </filter>
    <filter id="luminosity-noclip-2" x="468.16" y="-9056.36" width="910.69" height="32766" color-interpolation-filters="sRGB" filterUnits="userSpaceOnUse">
      <feFlood flood-color="#fff" result="bg"/>
      <feBlend in="SourceGraphic" in2="bg"/>
    </filter>
    <mask id="mask-1" x="468.16" y="-9056.36" width="910.69" height="32766" maskUnits="userSpaceOnUse"/>
    <linearGradient id="linear-gradient-12" x1="468.16" y1="1124.37" x2="1378.85" y2="1124.37" gradientUnits="userSpaceOnUse">
      <stop offset="0" stop-color="#fff"/>
      <stop offset=".82" stop-color="#2f2f2f"/>
      <stop offset="1" stop-color="#000"/>
    </linearGradient>
    <mask id="mask" x="468.16" y="1111.65" width="910.69" height="25.43" maskUnits="userSpaceOnUse">
      <g class="cls-2">
        <g class="cls-28">
          <polygon class="cls-29" points="1378.85 1137.08 540.86 1137.08 520.07 1116.29 468.16 1116.29 468.16 1111.65 521.99 1111.65 542.78 1132.45 1378.85 1132.45 1378.85 1137.08"/>
        </g>
      </g>
    </mask>
    <linearGradient id="linear-gradient-13" x1="468.16" y1="1124.37" x2="1378.85" y2="1124.37" gradientUnits="userSpaceOnUse">
      <stop offset="0" stop-color="#d5e4ff"/>
      <stop offset=".82" stop-color="#e9fafe"/>
      <stop offset="1" stop-color="#edfffe"/>
    </linearGradient>
    <filter id="luminosity-noclip-3" x="0" y="14.47" width="622.02" height="634.07" color-interpolation-filters="sRGB" filterUnits="userSpaceOnUse">
      <feFlood flood-color="#fff" result="bg"/>
      <feBlend in="SourceGraphic" in2="bg"/>
    </filter>
    <filter id="luminosity-noclip-4" x="0" y="-9056.36" width="622.02" height="32766" color-interpolation-filters="sRGB" filterUnits="userSpaceOnUse">
      <feFlood flood-color="#fff" result="bg"/>
      <feBlend in="SourceGraphic" in2="bg"/>
    </filter>
    <mask id="mask-3" x="0" y="-9056.36" width="622.02" height="32766" maskUnits="userSpaceOnUse"/>
    <linearGradient id="linear-gradient-14" x1="0" y1="331.51" x2="622.02" y2="331.51" xlink:href="#linear-gradient-12"/>
    <mask id="mask-2" x="0" y="14.47" width="622.02" height="634.07" maskUnits="userSpaceOnUse">
      <g class="cls-5">
        <g class="cls-27">
          <polygon class="cls-30" points="4.64 648.54 0 648.54 0 46.05 340.82 46.05 372.39 14.47 622.02 14.47 622.02 19.11 374.31 19.11 342.74 50.68 4.64 50.68 4.64 648.54"/>
        </g>
      </g>
    </mask>
    <linearGradient id="linear-gradient-15" x1="0" y1="331.51" x2="622.02" y2="331.51" xlink:href="#linear-gradient-13"/>
    <linearGradient id="linear-gradient-16" x1="1151.32" y1="136.72" x2="1151.32" y2="745.32" gradientUnits="userSpaceOnUse">
      <stop offset="0" stop-color="#626e7a"/>
      <stop offset="1" stop-color="#f5f5f5"/>
    </linearGradient>
    <linearGradient id="linear-gradient-17" x1="1149.51" y1="371.87" x2="1149.51" y2="1674.84" xlink:href="#linear-gradient"/>
    <linearGradient id="linear-gradient-18" x1="1291.65" y1="262.57" x2="1312.82" y2="262.57" xlink:href="#linear-gradient-2"/>
    <linearGradient id="linear-gradient-19" x1="1291.65" y1="470.86" x2="1312.82" y2="470.86" xlink:href="#linear-gradient-2"/>
    <linearGradient id="linear-gradient-20" x1="173.3" y1="417.9" x2="173.3" y2="1017.35" xlink:href="#linear-gradient"/>
    <linearGradient id="linear-gradient-21" x1="1342.11" y1="1151.57" x2="1342.11" y2="1456.1" gradientTransform="translate(2684.23 2373.39) rotate(-180)" xlink:href="#linear-gradient"/>
    <linearGradient id="linear-gradient-22" x1="1342.11" y1="1151.58" x2="1342.11" y2="1456.05" gradientTransform="translate(2684.23 2334.61) rotate(-180)" xlink:href="#linear-gradient"/>
    <linearGradient id="linear-gradient-23" x1="1268.62" y1="1589.07" x2="3274.76" y2="442.19" xlink:href="#linear-gradient"/>
    <linearGradient id="linear-gradient-24" x1="1222.09" y1="1507.69" x2="3228.23" y2="360.82" xlink:href="#linear-gradient"/>
    <linearGradient id="linear-gradient-25" x1="747.23" y1="-123.65" x2="747.23" y2="820.98" xlink:href="#linear-gradient"/>
    <linearGradient id="linear-gradient-26" x1="705.72" y1="-123.65" x2="705.72" y2="820.98" xlink:href="#linear-gradient"/>
    <linearGradient id="linear-gradient-27" x1="634.14" y1="-123.65" x2="634.14" y2="821" xlink:href="#linear-gradient"/>
  </defs>
  <g class="cls-25">
    <g id="Layer_2">
      <g id="_x3C_Layer_x3E_">
        <path class="cls-42" d="M1213.7,1765.75h46.5c-29.26.76-46.5,0-46.5,0Z"/>
        <g>
          <g>
            <path class="cls-40" d="M68.12,92.94h1447.76c8.77,0,15.88,7.12,15.88,15.88v945.84c0,8.77-7.12,15.88-15.88,15.88H68.12c-8.77,0-15.88-7.12-15.88-15.88V108.82c0-8.77,7.12-15.88,15.88-15.88Z"/>
            <g>
              <path class="cls-13" d="M818.67,746.21c-15.16-42.39-55.68-68.43-98.38-67.15-10.34.31-20.8,2.22-31.07,5.9-31.1,11.13-53.41,35.9-62.57,65.17-6.35,20.29-6.39,42.73,1.32,64.29.77,2.14,1.6,4.25,2.49,6.31,4.06,9.34,9.38,17.78,15.7,25.21,26.5,31.15,70.47,44.32,111.26,29.73,52.66-18.84,80.08-76.79,61.25-129.46ZM748.88,851.8c-30.58,10.94-63.55,1.07-83.42-22.29-4.74-5.57-8.73-11.9-11.77-18.9-.67-1.55-1.3-3.13-1.87-4.73-5.78-16.16-5.75-32.99-.99-48.19,6.87-21.95,23.59-40.52,46.91-48.86,7.7-2.75,15.54-4.19,23.29-4.42,32.01-.97,62.39,18.56,73.76,50.34,14.12,39.48-6.44,82.94-45.92,97.06Z"/>
              <path class="cls-24" d="M650.84,757.68l-24.19-7.56c9.16-29.27,31.47-54.04,62.57-65.17,10.27-3.67,20.74-5.59,31.07-5.9l.76,25.34c-7.75.24-15.6,1.67-23.29,4.42-23.32,8.34-40.04,26.91-46.91,48.86Z"/>
              <path class="cls-19" d="M653.7,810.61l-23.24,10.12c-.89-2.06-1.73-4.17-2.49-6.31-7.71-21.56-7.67-44-1.32-64.29l24.19,7.56c-4.76,15.21-4.79,32.03.99,48.19.58,1.61,1.2,3.19,1.87,4.73Z"/>
              <path class="cls-58" d="M646.16,845.93c-6.32-7.42-11.64-15.87-15.7-25.21l23.24-10.12c3.04,7,7.03,13.34,11.77,18.9l-19.31,16.42Z"/>
            </g>
            <rect class="cls-42" x="622.02" y="962.32" width="202.59" height="15.62"/>
            <rect class="cls-42" x="622.02" y="995.52" width="151.6" height="15.62"/>
            <path class="cls-41" d="M1400.3,807.75s.06-.02.1,0c-.41.18-.47.2-.1,0Z"/>
            <g>
              <path class="cls-42" d="M1116.76,817.08c16.57-41.86,3.31-88.16-29.63-115.37-7.97-6.59-17.1-12.05-27.24-16.07-30.71-12.16-63.82-8.26-90.02,7.69-18.15,11.05-32.99,27.89-41.42,49.18-.84,2.12-1.61,4.25-2.29,6.39-3.11,9.69-4.69,19.55-4.83,29.3-.64,40.89,23.72,79.8,64,95.75,52,20.59,110.84-4.88,131.44-56.88ZM994.65,850.39c-30.2-11.96-48.46-41.12-47.98-71.78.11-7.31,1.29-14.7,3.63-21.97.52-1.6,1.09-3.2,1.71-4.79,6.32-15.96,17.45-28.58,31.05-36.87,19.64-11.96,44.46-14.89,67.49-5.77,7.6,3.01,14.44,7.11,20.42,12.04,24.69,20.39,34.64,55.11,22.22,86.5-15.44,38.99-59.56,58.08-98.54,42.64Z"/>
              <path class="cls-21" d="M983.07,714.98l-13.2-21.64c26.2-15.95,59.3-19.85,90.02-7.69,10.14,4.02,19.27,9.48,27.24,16.07l-16.15,19.54c-5.98-4.94-12.82-9.04-20.42-12.04-23.03-9.12-47.85-6.19-67.49,5.77Z"/>
              <path class="cls-17" d="M950.3,756.64l-24.14-7.73c.69-2.14,1.45-4.27,2.29-6.39,8.43-21.29,23.26-38.13,41.42-49.18l13.2,21.64c-13.61,8.29-24.74,20.91-31.05,36.87-.63,1.59-1.2,3.19-1.71,4.79Z"/>
              <path class="cls-44" d="M921.33,778.21c.15-9.75,1.72-19.61,4.83-29.3l24.14,7.73c-2.34,7.27-3.52,14.66-3.63,21.97l-25.34-.4Z"/>
            </g>
            <rect class="cls-42" x="921.31" y="961.81" width="111.71" height="15.62"/>
            <rect class="cls-42" x="921.31" y="995.01" width="165.81" height="15.62"/>
            <rect class="cls-42" x="148.38" y="198.65" width="3.52" height="369.6"/>
            <rect class="cls-42" x="306.03" y="198.65" width="3.52" height="369.6"/>
            <rect class="cls-42" x="491.82" y="198.65" width="3.52" height="369.6"/>
            <rect class="cls-42" x="695.36" y="198.65" width="3.52" height="369.6"/>
            <rect class="cls-42" x="150.14" y="590.14" width="39.85" height="12.85"/>
            <rect class="cls-42" x="491.82" y="590.14" width="70.39" height="12.85"/>
            <rect class="cls-42" x="302.96" y="590.14" width="70.39" height="12.85"/>
            <rect class="cls-42" x="695.36" y="590.14" width="39.5" height="12.85"/>
            <rect class="cls-16" x="150.14" y="153.11" width="60" height="9.63"/>
            <rect class="cls-16" x="150.14" y="170.92" width="85.1" height="9.63"/>
            <path class="cls-12" d="M684.45,425.99c-.05-.29-5.48-28.38-30.08-43.01-18.67-11.1-43.61-11.73-74.14-1.87-31.7,10.24-56.53,15.21-78.09,15.21-46.53,0-77.8-23.15-130.07-66.42-32.6-26.99-72.24-36.7-111.61-27.33-42.9,10.2-78.74,41.74-98.34,86.53l-12.21-5.34c21.29-48.66,60.46-82.98,107.47-94.16,21.01-5,42.24-5.07,63.1-.22,21.73,5.06,41.95,15.23,60.09,30.25,75.51,62.51,101.47,79.18,195.56,48.79,34.41-11.12,63.08-10.04,85.21,3.19,29.79,17.81,36.22,51.24,36.48,52.65l-13.37,1.72Z"/>
            <g>
              <rect class="cls-42" x="1218.73" y="910.43" width="228.38" height="17.67"/>
              <rect class="cls-42" x="1218.73" y="951.66" width="246.76" height="17.67"/>
              <rect class="cls-42" x="1218.73" y="992.9" width="160.12" height="17.67"/>
              <rect class="cls-11" x="1218.73" y="951.66" width="128.49" height="17.67"/>
              <rect class="cls-8" x="1218.73" y="992.9" width="83.37" height="17.67"/>
              <rect class="cls-42" x="1218.73" y="786.74" width="228.38" height="17.67"/>
              <rect class="cls-42" x="1218.73" y="827.97" width="246.76" height="17.67"/>
              <rect class="cls-42" x="1218.73" y="869.2" width="160.12" height="17.67"/>
              <rect class="cls-9" x="1218.73" y="827.97" width="128.49" height="17.67"/>
              <rect class="cls-7" x="1218.73" y="786.74" width="93.87" height="17.67"/>
              <rect class="cls-6" x="1218.73" y="910.43" width="107.6" height="17.67"/>
              <rect class="cls-10" x="1218.73" y="869.2" width="83.37" height="17.67"/>
            </g>
            <rect class="cls-46" x="1218.73" y="718.05" width="181.66" height="28.87"/>
            <rect class="cls-47" x="1218.73" y="664.19" width="220.02" height="28.87"/>
            <g class="cls-1">
              <polygon class="cls-48" points="1378.85 1137.08 540.86 1137.08 520.07 1116.29 468.16 1116.29 468.16 1111.65 521.99 1111.65 542.78 1132.45 1378.85 1132.45 1378.85 1137.08"/>
            </g>
            <g class="cls-26">
              <polygon class="cls-52" points="4.64 648.54 0 648.54 0 46.05 340.82 46.05 372.39 14.47 622.02 14.47 622.02 19.11 374.31 19.11 342.74 50.68 4.64 50.68 4.64 648.54"/>
            </g>
            <path class="cls-36" d="M816.01,0h670.63c3.82,0,6.92,3.1,6.92,6.92v46.15c0,3.82-3.1,6.92-6.92,6.92h-670.63c-3.82,0-6.92-3.1-6.92-6.92V6.92c0-3.82,3.1-6.92,6.92-6.92Z"/>
            <g>
              <g class="cls-33">
                <path class="cls-53" d="M826.61,113.3h645.8c8.59,0,15.56,6.97,15.56,15.56v451.48c0,8.59-6.97,15.56-15.56,15.56h-645.8c-8.59,0-15.56-6.97-15.56-15.56V128.85c0-8.59,6.97-15.56,15.56-15.56Z"/>
              </g>
              <g>
                <rect class="cls-54" x="1291.65" y="203.75" width="21.16" height="117.64"/>
                <rect class="cls-43" x="1291.65" y="246.78" width="21.16" height="74.61"/>
              </g>
              <g>
                <rect class="cls-49" x="1291.65" y="412.04" width="21.16" height="117.64"/>
                <rect class="cls-22" x="1291.65" y="455.07" width="21.16" height="74.61"/>
              </g>
              <g>
                <path class="cls-42" d="M1236.66,286.87c-27.97-78.22-102.73-126.26-181.51-123.89-19.07.57-38.38,4.1-57.33,10.88-57.39,20.53-98.54,66.24-115.45,120.24-11.72,37.43-11.79,78.83,2.44,118.61,1.41,3.96,2.95,7.85,4.6,11.65,7.48,17.23,17.3,32.81,28.96,46.51,48.89,57.48,130.02,81.77,205.29,54.86,97.16-34.75,147.75-141.69,113-238.85ZM1107.91,481.68c-56.43,20.18-117.25,1.97-153.91-41.12-8.74-10.27-16.11-21.96-21.71-34.88-1.24-2.85-2.39-5.77-3.45-8.73-10.66-29.82-10.61-60.86-1.82-88.92,12.67-40.49,43.52-74.77,86.55-90.15,14.2-5.08,28.68-7.72,42.98-8.16,59.06-1.78,115.12,34.24,136.09,92.88,26.05,72.85-11.88,153.02-84.73,179.08Z"/>
                <path class="cls-43" d="M927.01,308.03l-44.64-13.94c16.91-54,58.06-99.71,115.45-120.24,18.95-6.78,38.26-10.3,57.33-10.88l1.4,46.75c-14.3.44-28.78,3.08-42.98,8.16-43.03,15.38-73.88,49.66-86.55,90.15Z"/>
                <path class="cls-22" d="M932.29,405.69l-42.88,18.66c-1.65-3.8-3.19-7.69-4.6-11.65-14.23-39.77-14.15-81.18-2.44-118.61l44.64,13.94c-8.78,28.05-8.84,59.1,1.82,88.92,1.06,2.97,2.22,5.88,3.45,8.73Z"/>
                <path class="cls-56" d="M918.37,470.86c-11.66-13.7-21.48-29.28-28.96-46.51l42.88-18.66c5.6,12.92,12.97,24.61,21.71,34.88l-35.63,30.3Z"/>
              </g>
            </g>
          </g>
          <g>
            <polygon class="cls-50" points="83.43 425.99 263.78 426.82 263.18 557.54 263.06 585.08 235.65 557.42 82.82 556.71 83.43 425.99"/>
            <path class="cls-42" d="M159.51,496.95c-.02,7.61,6.12,13.8,13.73,13.82,7.61.02,13.79-6.12,13.82-13.73.02-7.61-6.12-13.79-13.73-13.82-7.61-.02-13.8,6.12-13.82,13.73Z"/>
            <path class="cls-42" d="M114.27,496.81c-.02,7.61,6.12,13.79,13.73,13.82,7.61.02,13.79-6.12,13.82-13.73.02-7.61-6.12-13.79-13.73-13.82-7.61-.02-13.79,6.12-13.82,13.73Z"/>
            <path class="cls-42" d="M203.72,497.09c-.03,7.61,6.12,13.79,13.73,13.82,7.61.02,13.79-6.12,13.82-13.73.02-7.61-6.12-13.79-13.73-13.82-7.61-.02-13.79,6.12-13.82,13.73Z"/>
          </g>
          <rect class="cls-35" x="1280.77" y="1175.59" width="122.68" height="22.22" transform="translate(2684.23 2373.39) rotate(180)"/>
          <rect class="cls-34" x="1280.77" y="1165.21" width="122.68" height="4.18" transform="translate(2684.23 2334.61) rotate(180)"/>
          <g class="cls-33">
            <polygon class="cls-51" points="1345.25 1485.09 1339.76 1478.64 1430.85 1401.04 1486.17 1401.04 1611.68 1294.11 1690.19 1360.99 1748.07 1360.99 1777.33 1385.92 1868.24 1308.47 1914.38 1308.47 2105.68 1145.5 2111.17 1151.95 1917.5 1316.94 1871.36 1316.94 1777.33 1397.04 1744.96 1369.46 1687.07 1369.46 1611.68 1305.23 1489.28 1409.51 1433.97 1409.51 1345.25 1485.09"/>
          </g>
          <g class="cls-33">
            <polygon class="cls-55" points="1358.41 1377.9 1326.93 1377.9 1326.93 1369.44 1354.9 1369.44 1402.17 1322.16 1436.55 1356.54 1518.65 1274.43 1543.9 1299.68 1627.15 1216.44 1677.03 1266.32 1733.91 1266.32 1821.69 1178.54 1897.4 1178.54 1953.37 1122.57 2021.88 1122.57 2089.86 1054.59 2095.84 1060.58 2025.39 1131.04 1956.88 1131.04 1900.91 1187 1825.2 1187 1737.42 1274.79 1673.53 1274.79 1627.15 1228.41 1543.9 1311.66 1518.65 1286.4 1436.55 1368.51 1402.17 1334.14 1358.41 1377.9"/>
          </g>
          <polygon class="cls-37" points="730.26 66.97 779.17 66.97 764.2 35.92 715.3 35.92 730.26 66.97"/>
          <polygon class="cls-38" points="707.38 66.97 719.03 66.97 704.07 35.92 692.41 35.92 707.38 66.97"/>
          <polygon class="cls-39" points="538.42 30 736.44 30 729.87 14.47 531.85 14.47 538.42 30"/>
          <g>
            <rect class="cls-57" x="484.9" y="1341.59" width="21.33" height="269.25"/>
            <path class="cls-65" d="M619.88,1312.44c-1.77-58.43-49.63-68.16-88.71-75.79-5.37-1.05-9.83-2.59-13.58-4.45-30.17-95.74-55.07-248.58-72.35-313.7-25.26-95.22-237.31-62.1-237.31-62.1l117.29,492.95h335.5v-36.92h-40.84Z"/>
            <path class="cls-60" d="M702.65,1680.36c0,9.69-7.85,17.54-17.54,17.54s-17.54-7.85-17.54-17.54,7.85-17.54,17.54-17.54,17.54,7.85,17.54,17.54Z"/>
            <polygon class="cls-57" points="307.68 1662.98 312.12 1675.47 499.8 1617.32 490.8 1592.02 307.68 1662.98"/>
            <polygon class="cls-57" points="685.11 1662.98 680.67 1675.47 492.99 1617.32 501.24 1590.43 685.11 1662.98"/>
            <polygon class="cls-57" points="552.88 1674.13 552.88 1688.67 492.99 1617.32 501.24 1590.43 552.88 1674.13"/>
            <path class="cls-60" d="M554.37,1680.36c0,9.69-7.85,17.54-17.54,17.54s-17.54-7.85-17.54-17.54,7.85-17.54,17.54-17.54,17.54,7.85,17.54,17.54Z"/>
            <path class="cls-60" d="M325.22,1680.36c0,9.69-7.85,17.54-17.54,17.54s-17.54-7.85-17.54-17.54,7.85-17.54,17.54-17.54,17.54,7.85,17.54,17.54Z"/>
            <path class="cls-61" d="M807.17,1125.04v11.08h528.19v-11.08c0-10.33-6.94-18.7-15.51-18.7h-497.17c-8.56,0-15.51,8.37-15.51,18.7Z"/>
            <path class="cls-14" d="M1145.81,1650.89h159.61v19.64c0,3.25-2.64,5.89-5.89,5.89h-153.72v-25.53h0Z" transform="translate(2451.23 3327.32) rotate(180)"/>
            <rect class="cls-14" x="1274.19" y="1136.12" width="21.09" height="540.31" transform="translate(2569.47 2812.54) rotate(180)"/>
            <rect class="cls-14" x="1231.81" y="1136.12" width="21.09" height="540.31" transform="translate(2484.72 2812.54) rotate(180)"/>
            <rect class="cls-32" x="1082.13" y="795.58" width="12.42" height="275.17"/>
            <path class="cls-15" d="M1112.56,1106.34h92.89v-5.63h-92.89c-4.84,0-8.33-1.15-10.36-3.42-2.45-2.74-2.07-6.42-2.06-6.46l.02-.18v-.16s0-120.03,0-120.03h-5.63v119.89c-.1,1.15-.32,6.37,3.41,10.6,3.14,3.57,8.06,5.38,14.62,5.38Z"/>
            <path class="cls-32" d="M979.48,1096.48h104.55v7.58c0,1.25-1.02,2.27-2.27,2.27h-102.28v-9.86h0Z" transform="translate(2063.51 2202.82) rotate(180)"/>
            <path class="cls-20" d="M1031.28,1136.12h304.08v-11.08c0-10.33-7.15-18.7-15.96-18.7h-240.51l-47.61,29.78Z"/>
          </g>
          <g>
            <path class="cls-23" d="M567.84,960.18s30.05,1.81,38.46,6.49c8.41,4.68,65.22-13.22,66.27-17.35,1.05-4.13,0-6.17,0-6.17h-111.5l6.77,17.02Z"/>
            <path class="cls-23" d="M432.98,827.7s-9.58,75.31,0,85.18c36.61,37.7,172.29,34.72,172.29,34.72l-.06,15.33s-206.24,25.72-225.4-14.28c-23.03-48.07-14.09-126.45-14.09-126.45l67.26,5.51Z"/>
            <polygon class="cls-45" points="364.91 1621.28 377.17 1607.33 355.05 1584.19 336.37 1597.27 364.91 1621.28"/>
            <path class="cls-31" d="M336.37,1597.27s25.24,19.02,32.26,19.78c7.02.76,10.33,3.89,9.5,14.59-.84,10.7,10.26,55.75,17.99,56.48,7.73.72,34.05.87,38.82,18.21,4.78,17.35-83.49,13.7-88.96-.52-5.46-14.23-43.47-83.19-38.96-88.74,4.5-5.55,16.39-18.02,29.35-19.79Z"/>
            <path class="cls-59" d="M498.34,1058.27s164.91,287.28,97.97,346.71c-26.25,23.3-51.52,44.39-87.85,75.58-19.31,16.58-42.62,35.79-70.26,64.56-55.95,58.76-35.49,38.26-61.52,63.09l-26.94-23.67s30.53-42.24,47.74-74.68c24.16-45.53,64.75-99.05,83.54-113.99,32.17-25.58,41.01-30.61,41.01-55.06,0-26.23-151.15-172.77-151.15-172.77,0,0-21.93-91.71,30.46-115.7,51.04-23.39,97,5.93,97,5.93Z"/>
            <path class="cls-64" d="M372.58,1665.79s-1.04-13.23,1.19-21.69c2.23-8.46-34.14-3.6-34.14-3.6,0,0-4.68,35.33-3.33,43.42,1.35,8.09,36.28-18.13,36.28-18.13Z"/>
            <path class="cls-62" d="M379.37,1644.14l-49.05,8.84s-3.54-62.59-2.9-110.54c.69-51.54-1.91-92.07,13.83-133.09,14.73-38.37,11.37-53,12.66-79.19,1.3-26.19-12.57-161.1-12.57-161.1,0,0-16.76-60.4,22.03-103,37.79-41.53,135.55-.18,135.55-.18,0,0-20.37,184.29-69.26,298.28-13.84,32.26-6.36,51.86-24.01,101.71,0,0-26.81,108.71-26.29,178.26Z"/>
            <path class="cls-64" d="M422.07,701.5c-2.57,4.33-4.45,9.88-5.81,15.77-1.3,5.56-2.14,11.42-2.69,16.83-1.19,11.75-.99,21.42-.99,21.42,0,0-65.43-14.24-54.69-29.5,10.73-15.26,4.42-61.51,4.42-61.51,0,0,68.24,22.71,59.77,36.98Z"/>
            <path class="cls-63" d="M458.88,575.47s16.75,14.55,9.26,56.45c0,0,3.7,33.38,8.81,39.2,5.11,5.82-13.72,7.97-15.7,12.17-1.98,4.19-5.73,23.81-18.86,35.64-13.12,11.83-78.12-23.82-81.28-43.96-3.17-20.14-48.2-106.47,23.08-110.41,71.28-3.95,74.68,10.92,74.68,10.92Z"/>
            <path class="cls-18" d="M503.73,884.66c-1.33,4.2,3.67,68.68,3.21,74.24-2.31,28.24,4.48,74.27,9.63,99.37-70.66,34.55-168.92,31.53-168.92,31.53.35-2.67,14.07-35.87,14.42-38.41,5.82-41.48,14.41-60.41,12.08-88.47h0c-1.31-15.77-5.32-32.24-13.62-52.65-23.99-58.95-22.69-98.2-18.78-130.59,3.91-32.38,13.62-50.85,13.62-50.85l59.69,6.41c12.67,14.03,23.94,21.51,59.95,53.48,38.31,34.02,45.01,44.34,28.72,95.95Z"/>
            <path class="cls-31" d="M334.11,1674.74s34.52-9.82,35.54-10.78c1.03-.96,1.26-3.05,6.02-1.15,4.77,1.9,6.74,9.12,11.41,11.41,4.67,2.28,33.16,10.61,48.77,18.3,5.65,2.78,29.51,11.87,32.95,19.48,3.44,7.61,2.37,19.02-38.64,16.31-41.02-2.71-85.87,3.08-94.86-1.41-8.98-4.48-3.55-40.29-1.2-52.16Z"/>
            <path class="cls-4" d="M469.93,616.86s8.01-87.02-76.35-71.48c-84.37,15.54-40.88,110.64-29.51,141.63,0,0-1.38-48.14,39.24-49.71,40.62-1.57,49.01-10.97,66.63-20.44Z"/>
            <path class="cls-64" d="M396.7,625.08c-5.08-8.84-22.5-4.12-20.51,9.33,1.99,13.46,15.95,26.89,20.58,20.38,4.63-6.51,7.39-16.73-.07-29.71Z"/>
            <path class="cls-64" d="M398.63,796.04s-6.95,74.55,2.62,84.42c36.61,37.7,181.05,38.42,181.05,38.42l6.91,21.67s-214.71,14.62-233.88-25.38c-23.03-48.07-14.09-126.45-14.09-126.45l57.38,7.32Z"/>
            <path class="cls-4" d="M366.83,566.79s-32.49-31.18-55.59,4.13c-23.1,35.31,27.44,84.56,47.93,55.32,20.49-29.23,7.66-59.46,7.66-59.46Z"/>
            <path class="cls-3" d="M416.26,717.27c-1.3,5.56-2.14,11.42-2.69,16.83-21.74-9.91-37.99-40.18-37.99-40.18,15.74,13.57,40.68,23.34,40.68,23.34h0Z"/>
            <rect class="cls-32" x="522.06" y="940.55" width="204.78" height="11.43"/>
            <rect class="cls-32" x="665.48" y="852.28" width="204.78" height="11.43" transform="translate(-344.05 1157.03) rotate(-63.23)"/>
            <path class="cls-64" d="M552.16,918.88s30.04-2.31,38.46-8.27c8.41-5.96,65.21,16.83,66.26,22.09,1.06,5.26,0,7.85,0,7.85h-111.5l6.78-21.67Z"/>
            <polygon class="cls-18" points="355.37 728.83 359.57 717.41 416.9 728.83 416.9 738.97 355.37 728.83"/>
            <path class="cls-64" d="M398.54,797.02s6.15-43.21-23.93-47c-30.09-3.8-33.38,38.85-33.38,38.85l57.31,8.15Z"/>
          </g>
        </g>
      </g>
    </g>
  </g>
</svg>